<?xml version="1.0" encoding="UTF-8" standalone="no"?>
<!DOCTYPE svg PUBLIC "-//W3C//DTD SVG 1.1//EN"
 "http://www.w3.org/Graphics/SVG/1.1/DTD/svg11.dtd">
<!-- Generated by graphviz version 2.38.0 (20140413.2041)
 -->
<!-- Title: G Pages: 1 -->
<svg width="181pt" height="294pt"
 viewBox="0.00 0.00 181.00 294.00" xmlns="http://www.w3.org/2000/svg" xmlns:xlink="http://www.w3.org/1999/xlink">
<g id="graph0" class="graph" transform="scale(1 1) rotate(0) translate(4 290)">
<title>G</title>
<polygon fill="white" stroke="none" points="-4,4 -4,-290 177,-290 177,4 -4,4"/>
<g id="clust1" class="cluster"><title>cluster_Global</title>
<path fill="none" stroke="gray" d="M20,-8C20,-8 153,-8 153,-8 159,-8 165,-14 165,-20 165,-20 165,-266 165,-266 165,-272 159,-278 153,-278 153,-278 20,-278 20,-278 14,-278 8,-272 8,-266 8,-266 8,-20 8,-20 8,-14 14,-8 20,-8"/>
<text text-anchor="middle" x="86.5" y="-265.2" font-family="Times,serif" font-size="11.00" fill="gray">Global</text>
</g>
<g id="clust2" class="cluster"><title>cluster_\Chadicus</title>
<path fill="none" stroke="gray" d="M28,-16C28,-16 145,-16 145,-16 151,-16 157,-22 157,-28 157,-28 157,-238 157,-238 157,-244 151,-250 145,-250 145,-250 28,-250 28,-250 22,-250 16,-244 16,-238 16,-238 16,-28 16,-28 16,-22 22,-16 28,-16"/>
<text text-anchor="middle" x="86.5" y="-237.2" font-family="Times,serif" font-size="11.00" fill="gray">Chadicus</text>
</g>
<g id="clust3" class="cluster"><title>cluster_\Chadicus\Slim</title>
<path fill="none" stroke="gray" d="M36,-24C36,-24 137,-24 137,-24 143,-24 149,-30 149,-36 149,-36 149,-210 149,-210 149,-216 143,-222 137,-222 137,-222 36,-222 36,-222 30,-222 24,-216 24,-210 24,-210 24,-36 24,-36 24,-30 30,-24 36,-24"/>
<text text-anchor="middle" x="86.5" y="-209.2" font-family="Times,serif" font-size="11.00" fill="gray">Slim</text>
</g>
<g id="clust4" class="cluster"><title>cluster_\Chadicus\Slim\OAuth2</title>
<path fill="none" stroke="gray" d="M44,-32C44,-32 129,-32 129,-32 135,-32 141,-38 141,-44 141,-44 141,-182 141,-182 141,-188 135,-194 129,-194 129,-194 44,-194 44,-194 38,-194 32,-188 32,-182 32,-182 32,-44 32,-44 32,-38 38,-32 44,-32"/>
<text text-anchor="middle" x="86.5" y="-181.2" font-family="Times,serif" font-size="11.00" fill="gray">OAuth2</text>
</g>
<g id="clust5" class="cluster"><title>cluster_\Chadicus\Slim\OAuth2\Routes</title>
<path fill="none" stroke="gray" d="M52,-40C52,-40 121,-40 121,-40 127,-40 133,-46 133,-52 133,-52 133,-154 133,-154 133,-160 127,-166 121,-166 121,-166 52,-166 52,-166 46,-166 40,-160 40,-154 40,-154 40,-52 40,-52 40,-46 46,-40 52,-40"/>
<text text-anchor="middle" x="86.5" y="-153.2" font-family="Times,serif" font-size="11.00" fill="gray">Routes</text>
</g>
<!-- \\Chadicus\\Slim\\OAuth2\\Routes\\Authorize -->
<g id="node1" class="node"><title>\\Chadicus\\Slim\\OAuth2\\Routes\\Authorize</title>
<polygon fill="none" stroke="black" points="125,-138 48,-138 48,-102 125,-102 125,-138"/>
<text text-anchor="middle" x="86.5" y="-117.2" font-family="Courier,monospace" font-size="11.00">Authorize</text>
</g>
<!-- \\Chadicus\\Slim\\OAuth2\\Routes\\Token -->
<g id="node2" class="node"><title>\\Chadicus\\Slim\\OAuth2\\Routes\\Token</title>
<polygon fill="none" stroke="black" points="113.5,-84 59.5,-84 59.5,-48 113.5,-48 113.5,-84"/>
<text text-anchor="middle" x="86.5" y="-63.2" font-family="Courier,monospace" font-size="11.00">Token</text>
</g>
</g>
</svg>
